<?xml version="1.0" standalone="no"?>
<!DOCTYPE svg PUBLIC "-//W3C//DTD SVG 20010904//EN"
 "http://www.w3.org/TR/2001/REC-SVG-20010904/DTD/svg10.dtd">
<svg version="1.0" xmlns="http://www.w3.org/2000/svg"
 width="180.000000pt" height="180.000000pt" viewBox="0 0 180.000000 180.000000"
 preserveAspectRatio="xMidYMid meet">
<metadata>
Created by potrace 1.16, written by Peter Selinger 2001-2019
</metadata>
<g transform="translate(0.000000,180.000000) scale(0.100000,-0.100000)"
fill="#000000" stroke="none">
<path d="M306 1529 c-62 -38 -106 -115 -76 -134 6 -3 10 -16 11 -28 0 -12 16
-35 35 -51 32 -27 43 -29 132 -34 121 -5 173 7 206 51 13 18 26 43 28 57 3 22
8 25 43 25 37 0 40 -2 46 -35 4 -20 21 -47 38 -62 31 -27 34 -28 151 -28 117
0 120 1 151 28 18 16 37 44 43 63 l11 34 85 8 c47 4 119 8 161 8 87 0 112 12
102 47 -6 26 -10 26 -118 2 -27 -6 -93 -15 -145 -21 l-94 -9 -33 32 c-29 28
-41 32 -85 33 -47 0 -53 -2 -59 -25 -7 -25 -7 -25 -8 3 -1 28 -2 28 -53 26
-70 -3 -103 -15 -123 -45 -22 -34 -106 -35 -141 -1 -13 12 -24 27 -24 33 0 20
-32 27 -150 31 -77 2 -121 0 -134 -8z"/>
<path d="M154 1212 c-32 -47 -44 -74 -44 -98 0 -13 -4 -24 -10 -24 -5 0 -10
-11 -10 -25 0 -14 -4 -25 -10 -25 -5 0 -10 -15 -10 -34 0 -19 -4 -38 -10 -41
-13 -8 -13 -289 -1 -313 5 -9 16 -32 23 -50 7 -17 16 -32 20 -32 5 0 8 -10 8
-21 0 -12 16 -44 35 -70 19 -27 35 -54 35 -59 0 -6 5 -10 10 -10 12 0 80 -70
80 -82 0 -4 5 -8 11 -8 6 0 24 -11 41 -25 16 -14 35 -25 42 -25 7 0 21 -8 32
-17 30 -27 62 -43 84 -43 11 0 20 -4 20 -10 0 -5 9 -10 20 -10 11 0 20 -4 20
-10 0 -5 10 -10 23 -10 13 0 27 -3 31 -7 12 -13 214 -35 316 -35 101 0 304 22
316 34 4 5 18 8 31 8 13 0 23 5 23 10 0 6 9 10 20 10 11 0 20 5 20 10 0 6 14
10 30 10 17 0 30 4 30 9 0 5 8 11 18 14 36 12 113 64 172 117 34 30 66 58 72
61 5 3 10 10 10 15 1 5 11 23 24 40 13 17 24 38 24 47 0 10 5 17 10 17 6 0 10
7 10 15 0 8 5 15 10 15 6 0 10 9 10 20 0 11 5 20 10 20 6 0 10 23 10 50 0 28
5 50 10 50 6 0 10 44 10 111 0 71 -4 108 -10 104 -6 -4 -10 18 -10 59 0 37 -4
66 -10 66 -5 0 -10 11 -10 25 0 14 -4 25 -8 25 -5 0 -14 16 -22 35 -13 34 -16
35 -64 35 -28 0 -80 -7 -116 -15 -36 -8 -87 -19 -115 -26 -27 -6 -97 -24 -155
-40 -58 -16 -123 -34 -145 -40 -22 -6 -51 -15 -65 -19 -14 -5 -86 -27 -160
-50 -74 -23 -166 -52 -205 -65 -63 -20 -71 -20 -77 -6 -11 26 -9 96 3 108 8 8
8 13 0 18 -14 8 -19 -6 -24 -77 -2 -32 -7 -61 -10 -64 -7 -8 -39 20 -240 210
-76 72 -145 134 -152 138 -8 5 -19 -2 -31 -20z"/>
</g>
</svg>
